<svg id="Layer_1" data-name="Layer 1" xmlns="http://www.w3.org/2000/svg" viewBox="0 0 660.75 206.03"><path d="M49.87,57.74C56.21,54.9,61,53.59,65.4,53.59c26.68,0,44.4,21.65,44.4,46.15,0,31.05-25.59,56.21-57.53,56.21-12.68,0-23.84-2.19-38.93-7.88.22-5.25.22-11.37.22-16.84V30C13.56,17.5,12.25,15.75,0,14.87V7.44A295.92,295.92,0,0,0,41.78,0V61.46Zm-8.09,71.52a21.51,21.51,0,0,0,1.31,7.44c1.31,3.28,7.43,10.06,15.53,10.06,11.59,0,20.12-12.9,20.12-39.81C78.74,79,65,68,51.84,68a32.56,32.56,0,0,0-10.06,1.53Z" style="fill:#ea847a"/><path d="M178.7,153.32H121v-7.43c11.6-1.32,12.69-2.41,12.69-15.53V82.46c0-10.94-.88-12-11.16-14.22V61.46a211,211,0,0,0,39.37-8.31V76.77c9.85-15.09,17.72-23.18,26.69-23.18,8.09,0,14.21,5.46,14.21,13.12A21.26,21.26,0,0,1,191.6,85.3a6,6,0,0,1-6.78-1.09c-3.72-3.06-6.56-6.56-10.28-6.56-3.28,0-8.75,2.84-12.69,11.15v41.56c0,13.12,1.53,13.78,16.85,15.53Z" style="fill:#ea847a"/><path d="M211.28,153.32v-7.43c11.81-1.54,13.13-2.41,13.13-17.94V85.3c0-14.65-1.1-15.53-11.38-16.84V61.24a239.17,239.17,0,0,0,39.59-7.87V128c0,14.87.88,16.4,13.56,17.94v7.43ZM236.87,40c-8.31,0-15.74-7-15.74-15.53A15.68,15.68,0,0,1,237.09,9,15.36,15.36,0,0,1,252.84,24.5,15.69,15.69,0,0,1,236.87,40Z" style="fill:#ea847a"/><path d="M338.8,84.64c-5.69-15.31-13.12-22.31-23.4-22.31a11.26,11.26,0,0,0-11.6,11.6c0,7.65,5.47,11.81,16.85,16.84,17.71,7.87,29.74,15.31,29.74,32.59,0,21.87-20.78,32.59-39.81,32.59-11.37,0-23.18-4.38-27.77-6.56-.88-5-2.85-20.13-3.5-27.78l7.21-1.31c4.6,13.78,13.57,26.68,27.78,26.68,8.31,0,12.47-5,12.47-11.37,0-6.78-3.28-11.82-16.84-18.38-14.44-7-28.44-14.65-28.44-32.8,0-17.28,14.22-30.84,37.41-30.84,10.49,0,18.59,2.18,23.62,3.28.65,5.9,2.62,19.9,3.5,25.81Z" style="fill:#ea847a"/><path d="M479.87,153.32c-17.06-.22-31.93,0-40,.44-.66-1.09-27.34-42-28.22-43.53-2-2.62-3.28-3.71-4.37-3.93a6.72,6.72,0,0,0-2-.22v23.4c0,14.22,1.09,14.66,12.9,16.41v7.43h-53.8v-7.43c11.59-1.75,12.68-2.19,12.68-16.41V29.75c0-11.81-1.09-12.91-12.68-15.53V7.44A193.25,193.25,0,0,0,405.29,0V99.74c5-1.32,8.75-5,12.25-8.53,5.47-5.47,13.56-15.1,16-19.47,2.63-4.81-.87-7-9-8.31V56.21l46.8-1.75v7c-13.56,2.19-20.56,5-28.21,13.12-3.5,3.5-8.31,9.41-14.44,16.41,5.47,8.53,26,36.3,32.15,43.74,7,8.09,9.63,9.84,19,11.16Z" style="fill:#ea847a"/><path d="M493.65,153.32v-7.43c12.47-2,12.91-3.07,12.91-16.85V29.53c0-11.38-1.31-12.69-12.69-15.09v-7C509,5.91,524.27,3.28,534.77,0V129c0,14.44.66,15.31,13.13,16.85v7.43Z" style="fill:#ea847a"/><path d="M660.75,63.65c-10.5,1.53-12.68,3.72-18.15,15.53C637.13,90.55,631,107,618.32,137.36c-14.87,35.43-19,49.86-23.18,62.33-1.53,4.81-4.16,6.34-7.88,6.34-8.53,0-17.28-6.34-17.28-14,0-3.5,1.32-5.25,5.91-8.1,8.53-4.81,14.44-9,18.37-15.74A78.83,78.83,0,0,0,599.73,156c.87-3.07.44-5-.87-8.31-11.38-31.5-25.38-61.46-29.31-70.65S563,65.18,552.49,63.65V56.21h54.68v7.44c-9.41,1.53-10.94,3.06-8.53,9.84l17.06,46.15c4.81-12,12.68-32.15,16.62-44.4,2.19-7-.66-9.84-11.59-11.59V56.21h40Z" style="fill:#ea847a"/></svg>