<svg id="Layer_1" data-name="Layer 1" xmlns="http://www.w3.org/2000/svg" viewBox="0 0 439.16 135.58"><path d="M2.37,0H18.66a2.26,2.26,0,0,1,2.26,2.26V32.62a2.27,2.27,0,0,0,3.76,1.7c3.64-3,9.21-5.41,17.64-5.41,20.38,0,30.49,16.91,30.49,37.87,0,21.39-11,40.47-32.52,40.47-8.15,0-13-1.78-16.39-4.9a2.27,2.27,0,0,0-3.76,1.3h0a2.23,2.23,0,0,1-2.2,1.87H2.25A2.25,2.25,0,0,1,0,103.23c.11-7.35.11-14.81.11-22.14V2.26A2.26,2.26,0,0,1,2.37,0ZM36,45.53c-9,0-12.83,7.46-12.83,22.78,0,12.57,3.81,22.46,12.54,22.46,10.55,0,16.19-9.39,16.19-23.56C51.86,54.64,47.09,45.53,36,45.53Z" style="fill:#003727"/><path d="M81,51c0-6.25,0-11.79-.08-17.13a3.21,3.21,0,0,1,3.21-3.26H98.25a3.21,3.21,0,0,1,3.2,3v.14a3.21,3.21,0,0,0,5.46,2.09c3.65-3.6,8.75-6.08,15.32-6.79a3.22,3.22,0,0,1,3.52,3.21V45.49a3.21,3.21,0,0,1-3.15,3.2c-13.13.26-20.84,5.11-20.84,24.16v29.46a3.22,3.22,0,0,1-3.22,3.21H84.16A3.21,3.21,0,0,1,81,102.31Z" style="fill:#003727"/><path d="M133.3,13.43V5.07A5.07,5.07,0,0,1,138.37,0H149a5.07,5.07,0,0,1,5.07,5.07v8.36A5.07,5.07,0,0,1,149,18.5H138.37A5.07,5.07,0,0,1,133.3,13.43Zm5.07,17.21H149a5.07,5.07,0,0,1,5.07,5.07v64.74a5.07,5.07,0,0,1-5.07,5.07H138.37a5.07,5.07,0,0,1-5.07-5.07V35.71A5.07,5.07,0,0,1,138.37,30.64Z" style="fill:#003727"/><path d="M178.62,83A3.75,3.75,0,0,1,182,85.22c2.13,4.64,6.71,7.14,13.36,7.14,7.66,0,10.41-2.74,10.41-7.37s-3.18-6.65-13.88-9.25c-24.42-6.07-28.33-13.59-28.33-24.14,0-11,7.66-22.69,30.21-22.69,19.4,0,27.92,9.08,30.35,18a3.64,3.64,0,0,1-3.57,4.51H207.77a3.67,3.67,0,0,1-3.34-2.16c-1.22-2.68-4.05-5.79-11.53-5.79-6.8,0-9.11,3-9.11,6.36,0,3.76,2.31,5.49,14.45,8.38,25,5.78,28.62,14.31,28.62,25.3,0,12.43-9.54,23.7-32.23,23.7-20.08,0-29.66-8.49-32.86-19.58A3.69,3.69,0,0,1,165.3,83Z" style="fill:#003727"/><path d="M262.2,54.93c5.24-6.54,12-14.58,19.08-23.12a3.21,3.21,0,0,1,2.47-1.17h14.93A3.2,3.2,0,0,1,301,36L281.56,57.2a3.21,3.21,0,0,0-.37,3.83l24.24,39.62a3.2,3.2,0,0,1-2.72,4.87H286.85a3.2,3.2,0,0,1-2.78-1.62l-16-28a3.19,3.19,0,0,0-5-.72l-5.61,5.44a3.2,3.2,0,0,0-1,2.3v19.44a3.2,3.2,0,0,1-3.2,3.2H238.9a3.2,3.2,0,0,1-3.2-3.2V3.2A3.2,3.2,0,0,1,238.9,0h14.42a3.2,3.2,0,0,1,3.2,3.2V52.93A3.19,3.19,0,0,0,262.2,54.93Z" style="fill:#003727"/><path d="M313.19,102.22V3.3A3.29,3.29,0,0,1,316.48,0H330.7A3.3,3.3,0,0,1,334,3.3v98.92a3.3,3.3,0,0,1-3.3,3.3H316.48A3.29,3.29,0,0,1,313.19,102.22Z" style="fill:#003727"/><path d="M359.89,30.64a4.07,4.07,0,0,1,3.9,2.92c7.3,24.67,13.64,46.2,14.75,52.88h.14c1.54-7.28,5.79-23.22,14.06-52.82a4.07,4.07,0,0,1,3.91-3h12A4.07,4.07,0,0,1,412.5,36l-23.41,71.72C382,129.22,375.94,135.58,358,135.58c-1.23,0-3.47-.06-5.89-.22a4.07,4.07,0,0,1-3.79-4.06v-8.59a4.08,4.08,0,0,1,4.2-4.06c.39,0,.78,0,1.15,0,7.21,0,11-2.3,13.79-9.45a4,4,0,0,0,0-2.78l-24.9-70.38a4.06,4.06,0,0,1,3.83-5.42Z" style="fill:#003727"/><path d="M417.05,101.11V84.49a4.41,4.41,0,0,1,4.41-4.41h13.29a4.4,4.4,0,0,1,4.41,4.41v16.62a4.41,4.41,0,0,1-4.41,4.41H421.46A4.42,4.42,0,0,1,417.05,101.11Z" style="fill:#003727"/></svg>